<?xml version="1.0" encoding="UTF-8" standalone="no"?>
<svg width="184px" height="184px" viewBox="0 0 184 184" version="1.1" xmlns="http://www.w3.org/2000/svg" xmlns:xlink="http://www.w3.org/1999/xlink" xmlns:sketch="http://www.bohemiancoding.com/sketch/ns">
    <!-- Generator: Sketch 3.5.1 (25234) - http://www.bohemiancoding.com/sketch -->
    <title>Logo_White_Inverse-link</title>
    <desc>Created with Sketch.</desc>
    <defs></defs>
    <g id="Page-1" stroke="none" stroke-width="1" fill="none" fill-rule="evenodd" sketch:type="MSPage">
        <g id="boilermake" sketch:type="MSLayerGroup" transform="translate(-27.000000, -300.000000)" fill="#FFFFFF">
            <g id="Logo_White_Inverse-link" transform="translate(119.000000, 392.000000) scale(1, -1) translate(-119.000000, -392.000000) translate(27.000000, 300.000000)" sketch:type="MSShapeGroup">
                <g id="Logo_White_Inverse">
                    <g id="Logo_Light_2_">
                        <g id="Logo_2_">
                            <path d="M92,183.7 C41.4,183.7 0.3,142.7 0.3,92 C0.3,41.3 41.3,0.3 92,0.3 C142.7,0.3 183.7,41.4 183.7,92 C183.7,142.6 142.6,183.7 92,183.7 L92,183.7 Z M92,8.7 C46,8.7 8.7,46 8.7,92 C8.7,138 46,175.3 92,175.3 C138,175.3 175.3,138 175.3,92 C175.3,46 138,8.7 92,8.7 L92,8.7 Z" id="Shape"></path>
                            <path d="M132.7,55 L128,50.3 C126,48.3 122.9,48.3 120.9,50.3 L101.4,69.8 C99.4,71.8 99.4,74.9 101.4,76.9 L106.1,81.6 C108,83.5 111.2,83.5 113.2,81.6 L132.7,62.1 C134.6,60.1 134.6,57 132.7,55 L132.7,55 Z" id="Shape"></path>
                            <path d="M80.8,121 C78.8,119 78.8,115.9 80.8,113.9 L82.6,112.1 C84.6,110.1 84.6,107 82.6,105 L77.9,100.3 C76,98.3 72.8,98.3 70.8,100.3 L69,102.1 C67,104.1 63.9,104.1 61.9,102.1 L57.2,97.4 C55.3,95.4 52.1,95.4 50.1,97.4 L39.5,108 C37.5,110 37.5,113.1 39.5,115.1 L58.1,133.6 C59,134.5 60.3,135 61.6,135 L81,135 C82.3,135 83.6,134.5 84.5,133.6 L85.4,132.8 C87.3,130.8 87.3,127.7 85.4,125.7 L80.8,121 L80.8,121 Z" id="Shape"></path>
                            <path d="M144.4,108.1 L133.8,97.5 C131.8,95.5 128.7,95.5 126.7,97.5 L122,102.2 C120,104.2 116.9,104.2 114.9,102.2 L63.1,50.3 C61.1,48.3 58,48.3 56,50.3 L51.3,55 C49.3,56.9 49.3,60.1 51.3,62.1 L103.2,114 C105.2,116 105.2,119.1 103.2,121.1 L98.5,125.8 C96.6,127.8 96.6,130.9 98.5,132.9 L99.4,133.7 C100.4,134.6 101.6,135.1 102.9,135.1 L122.3,135.1 C123.6,135.1 124.9,134.6 125.8,133.7 L144.4,115.2 C146.4,113.1 146.4,110 144.4,108.1 L144.4,108.1 Z" id="Shape"></path>
                        </g>
                    </g>
                </g>
            </g>
        </g>
    </g>
</svg>