<?xml version="1.0" encoding="utf-8"?>
<!-- Generator: Adobe Illustrator 18.1.1, SVG Export Plug-In . SVG Version: 6.00 Build 0)  -->
<svg version="1.1" id="Layer_1" xmlns="http://www.w3.org/2000/svg" xmlns:xlink="http://www.w3.org/1999/xlink" x="0px" y="0px"
	 viewBox="0 0 600 600" enable-background="new 0 0 600 600" xml:space="preserve">
<g id="Layer_5">
	<polygon fill="#E0E0E0" points="220.4,515.4 95.5,396.3 48.7,306.4 35,212.4 107.9,151.9 190.5,129 200.2,110.2 212.6,100.2 
		256,112.6 265,90.5 298.1,94.7 333.8,114 350.3,135 477.7,184.9 482.5,229.6 569.2,285.4 572.7,296.4 529.3,362.5 514.2,387.9 
		508.7,358.4 452.2,341.1 431.5,351.5 440.5,362.5 455.4,383.9 465.9,419.6 473.6,414.9 486.6,394.1 490.1,421.1 458.4,482.3 
		401.9,511.2 337.9,434.8 275.9,467.1 	"/>
</g>
<linearGradient id="SVGID_1_" gradientUnits="userSpaceOnUse" x1="311.8309" y1="-215.4703" x2="311.8309" y2="541.99" gradientTransform="matrix(0.4 0 0 -0.4 180.6 361.4)">
	<stop  offset="3.271244e-04" style="stop-color:#C2C9C7"/>
	<stop  offset="1" style="stop-color:#949494"/>
</linearGradient>
<path fill="url(#SVGID_1_)" d="M459.6,427.9l-57.1-16l7.8-11.7l51.1,20.1L459.6,427.9z M400.1,326.2l49.2-30.2l32.9,8.2l94-8.6
	l-0.9-10.4l-92.1,8.4l-35.4-8.8l-55.3,33.9l-51.1,87l9.1,5.3L400.1,326.2z M259.1,312.3l12.5,20.5L346,318l-25.1,61.4l9.8,4
	l32.5-79.4L277,321l-22-35.8L221,426.7l10.2,2.5L259.1,312.3z M148,332.5L134.5,304l3.7-2l-36.7-66.6l-9.4,4.8l44.6,93.2l-26,80.2
	l10,3.3L148,332.5z M351.1,177.7v-19.4l-32.9-33.3l-7.5,7.4l29.8,30.2V173l-28.2,24.5l2.5-22.2L296,137.9l-66-25.7l-19.7,11v29.3
	l-15.2-26.3l-9.1,5.3l34.7,60v-62.2l10-5.5l57.5,22.6l15.7,31.1l-5.3,45.9L351.1,177.7z M336.7,308.4l-84.1,86l26.4-65.4L311,210.6
	l-14.1-72.3L224,109.8l18.9,128.8l-22.2-68.2l-10,3.3L252,300.6l10.2-2.4L237,126.1l50.7,19.8l12.5,64.3l-31,115.2l-46.1,114.3
	l80.2-82.1l-56.9,127.9l9.6,4.2L336.7,308.4z M273.5,472.8l63.5-34.2l63.2,85.5l62.8-41.4l35.4-61.9l-84.1-24.3l9.9-33.4l26.9-16.8
	l82.2,22l30.9-45l16.2-36.2l-2.2-0.9l0.3-0.4l-92-58.7v-43.9L373,140l-105.2-32.9L207,95.7l-12.5,26.5l-91.8,28.5l-72.4,60.2
	L43.8,309l46.7,89.3l131.4,126L273.5,472.8z M267.2,464.2l-45.4,45.4L99,391.9l-45-86.2l-12.5-90.5l66.4-55.2l94.2-29.2l11.1-23.4
	l52.1,9.6l104.4,32.6l106.5,40.6v42.5l91.2,58.2l-11.9,26.8L529,356.4L449.6,335l-34.2,21.4l-14,47.4l81.3,23.5l-27.6,48l-52.5,34.6
	L339.9,425L267.2,464.2z M457.2,375.5l-21-25.6l-8.2,6.6l19.7,24.1l8.3,26.4l-3.8-1.3l-4.9-12.9l-29-16.1l-7.8,20.3l9.8,3.7l3.4-9.1
	l15.2,8.4l5.3,14l28.1,9.4L457.2,375.5z M319.7,407.1l23.9-51.7l22.7-61.1l69.7-27.7l-48-23.5h36.7l61.9-8.6V183l-175.2-61.9
	l-3.4,9.9l168.2,59.4v35l-51.9,7.1h-81.5l67.4,33l-52,20.7L334,351.3l-23.2,50.3l-61.6,75.9l-60.3-142.1l-11.7,61.6l-39.5-96.2
	l-9.6,4l52.9,128.8l11.9-62.3l53.7,126.4L319.7,407.1z M196.1,235.3v-117l-60.7,46.7l-43.9,72l11.1,53.3l-21.5,87l10.2,2.5l22-89.3
	l-10.7-51.6l32.6-53.6l64.1,202.8L196.1,235.3z M143.3,171.9l42.4-32.6v95.9l1.7,80l-44.9-141.9L143.3,171.9z M333.7,107.8
	l-37.2-19.3h-37.1l-9.2,25.2l131.6,39.6L333.7,107.8z M266.8,99H294l33.6,17.4l15,14.3L264,106.9L266.8,99z M529.8,290.3l14.4,17
	l31.4-17 M413,466.1l80.2-40.5L409.4,411l6.1-18.9l-9.9-3.3l-10.2,30.3l64.7,11.1L410,455.6l-47.8-75l-33.1,50.7l8.8,5.7l24.1-37.1
	l40.5,63.6l-6.5,52.5l10.4,1.3L413,466.1z M351.1,230.4v-66.2h-10.4v62.9l-64.1,92.4l8.6,5.9L351.1,230.4z M532.7,363.8l-9.1-5.1
	l-6.7,11.9l-3.8-14.6l-10.2,2.6l10.4,39.5L532.7,363.8z M497.9,420.4L487.4,381L468,415l9.1,5.1l6.7-11.7l3.8,14.6L497.9,420.4z
	 M351,406.9l-12.3-50.5l-10.2,2.5l12.3,50.5L351,406.9z M452.9,287.3L436.8,264l10.7-27.1h-61.9v10.4H432l-7.1,17.9l19.3,27.8
	L452.9,287.3z"/>
<path fill="#FFFFFF" d="M155,298.9l-3.3,3.8c-1.5-1.8-3.7-2.9-5.7-2.9c-3.6,0-6.2,2.8-6.2,6.5s2.6,6.6,6.2,6.6
	c1.8,0,4.1-1.1,5.7-2.6l3.3,3.6c-2.4,2.5-5.9,4.1-9.2,4.1c-6.7,0-11.7-4.9-11.7-11.5c0-6.5,5.1-11.2,11.9-11.2
	C149.4,295,152.8,296.5,155,298.9z"/>
<path fill="#FFFFFF" d="M182.7,313.4l-1.6,4.1h-5.8l9.6-22.3h5.8l9.4,22.3h-6.1l-1.6-4.1C192.5,313.4,182.7,313.4,182.7,313.4z
	 M187.8,300.9l-3.3,8.3h6.5L187.8,300.9z"/>
<path fill="#FFFFFF" d="M232.8,299.8v17.8h-5.7v-17.8h-6.6v-4.6h19v4.6H232.8z"/>
<path fill="#FFFFFF" d="M277,317.6v-8.7h-9.2v8.7h-5.7v-22.3h5.7v9.2h9.2v-9.2h5.7v22.3H277z"/>
<path fill="#FFFFFF" d="M312.2,313.4l-1.6,4.1h-5.8l9.6-22.3h5.8l9.4,22.3h-6.1l-1.6-4.1C322,313.4,312.2,313.4,312.2,313.4z
	 M317.2,300.9l-3.3,8.3h6.5L317.2,300.9z"/>
<path fill="#FFFFFF" d="M371.3,298.9l-3.3,3.8c-1.5-1.8-3.7-2.9-5.7-2.9c-3.6,0-6.2,2.8-6.2,6.5s2.6,6.6,6.2,6.6
	c1.8,0,4.1-1.1,5.7-2.6l3.3,3.6c-2.4,2.5-5.9,4.1-9.2,4.1c-6.7,0-11.7-4.9-11.7-11.5c0-6.5,5.1-11.2,11.9-11.2
	C365.6,295,369.1,296.5,371.3,298.9z"/>
<path fill="#FFFFFF" d="M402.7,308.8l-2.9,3.3v5.5h-5.7v-22.3h5.7v9.6l8.6-9.6h6.6l-8.3,9.2l8.8,13.1h-6.7L402.7,308.8z"/>
<path fill="#FFFFFF" d="M455.4,297.4l-2.1,4.5c-2.4-1.3-5.3-2.4-7.1-2.4c-1.5,0-2.5,0.5-2.5,1.6c0,3.8,11.7,1.7,11.7,9.8
	c0,4.5-4,6.9-9,6.9c-3.7,0-7.5-1.5-10.2-3.6l2.2-4.4c2.2,2,5.7,3.3,8,3.3c1.8,0,2.9-0.7,2.9-2c0-4-11.7-1.6-11.7-9.5
	c0-4.1,3.6-6.7,8.8-6.7C449.8,295,453.1,296,455.4,297.4z"/>
</svg>
