<?xml version="1.0" standalone="no"?>
<!DOCTYPE svg PUBLIC "-//W3C//DTD SVG 1.1//EN" "http://www.w3.org/Graphics/SVG/1.1/DTD/svg11.dtd">
<svg width="800px" height="800px" version="1.1" xmlns="http://www.w3.org/2000/svg" xmlns:xlink="http://www.w3.org/1999/xlink" xml:space="preserve" style="fill-rule:evenodd;clip-rule:evenodd;stroke-linecap:round;stroke-linejoin:round;stroke-miterlimit:1.41421;">
    <g>
        <g>
            <path d="M411.436,77.847C591.572,77.847 737.601,223.876 737.601,404.012C737.601,584.147 591.572,730.176 411.436,730.176C231.3,730.176 85.2714,584.147 85.2714,404.012C85.2714,223.876 231.3,77.847 411.436,77.847Z" style="fill:white;stroke-width:33.33px;stroke:white;"/>
        </g>
        <g>
            <path d="M411.362,105.878C575.877,105.878 709.243,239.245 709.243,403.76C709.243,568.276 575.877,701.642 411.362,701.642C246.846,701.642 113.48,568.276 113.48,403.76C113.48,239.245 246.846,105.878 411.362,105.878Z" style="fill:white;"/>
            <clipPath id="tag1">
                <path d="M411.362,105.878C575.877,105.878 709.243,239.245 709.243,403.76C709.243,568.276 575.877,701.642 411.362,701.642C246.846,701.642 113.48,568.276 113.48,403.76C113.48,239.245 246.846,105.878 411.362,105.878Z"/>
            </clipPath>
            <g clip-path="url(#tag1)">
                <g>
                    <path d="M416.579,192.982L515.041,389.905L318.117,389.905L416.579,192.982Z" style="fill:white;stroke-width:33.33px;stroke:white;"/>
                </g>
                <g>
                    <path d="M241.377,470.414C246.636,464.598 252.996,460.274 260.455,457.442C267.915,454.61 275.538,453.194 283.326,453.194C295.666,453.194 305.742,456.343 313.556,462.639C321.369,468.935 325.276,477.216 325.276,487.482C325.276,495.371 322.38,502.97 316.59,510.277C310.799,517.585 301.33,525.841 288.181,535.045L326.034,535.045L326.034,558.333L244.791,558.333L244.791,537.548C267.801,520.961 282.441,509.734 288.712,503.867C294.983,498.001 298.118,492.539 298.118,487.482C298.118,484.144 296.74,481.527 293.984,479.631C291.228,477.734 287.827,476.786 283.781,476.786C273.414,476.786 264.21,480.554 256.169,488.089L241.377,470.414Z" style="fill:black;"/>
                    <path d="M336.275,506.598C336.275,497.091 337.83,488.392 340.94,480.503C344.05,472.614 349.057,466.09 355.96,460.932C362.863,455.774 371.119,453.194 380.727,453.194C390.336,453.194 398.592,455.774 405.495,460.932C412.398,466.09 417.405,472.614 420.515,480.503C423.625,488.392 425.18,497.091 425.18,506.598C425.18,513.628 424.27,520.278 422.449,526.549C420.629,532.82 417.936,538.496 414.37,543.579C410.805,548.661 406.14,552.707 400.375,555.716C394.609,558.725 388.06,560.23 380.727,560.23C373.395,560.23 366.845,558.725 361.08,555.716C355.315,552.707 350.65,548.661 347.085,543.579C343.519,538.496 340.826,532.82 339.006,526.549C337.185,520.278 336.275,513.628 336.275,506.598ZM363.356,506.598C363.356,526.574 369.146,536.562 380.727,536.562C392.308,536.562 398.099,526.574 398.099,506.598C398.099,486.723 392.308,476.786 380.727,476.786C369.146,476.786 363.356,486.723 363.356,506.598Z" style="fill:black;"/>
                    <path d="M429.883,490.441L466.067,454.712L489.28,454.712L489.28,558.333L462.502,558.333L462.502,488.923L445.131,506.446L429.883,490.441Z" style="fill:black;"/>
                    <path d="M504.906,545.134L519.319,526.321C526.652,533.148 535.629,536.562 546.249,536.562C551.609,536.562 555.769,535.424 558.727,533.148C561.686,530.873 563.165,528.041 563.165,524.652C563.165,521.011 561.762,518.103 558.955,515.929C556.148,513.754 552.166,512.667 547.007,512.667C538.815,512.667 531.987,515.246 526.526,520.404L508.016,515.929L508.016,454.712L583.191,454.712L583.191,478L534.718,478L534.718,498.026C540.433,492.514 547.842,489.783 556.945,489.834C566.149,489.834 574.013,492.919 580.536,499.088C587.06,505.258 590.322,513.4 590.322,523.514C590.322,534.691 586.39,543.604 578.526,550.254C570.662,556.904 560.004,560.23 546.552,560.23C529.054,560.23 515.172,555.198 504.906,545.134Z" style="fill:black;"/>
                </g>
                <g>
                    <path d="M415.505,243.575C436.261,204.138 477.773,204.138 498.529,223.856C519.286,243.575 519.286,283.011 498.529,322.447C484,352.025 446.639,381.602 415.505,401.32C384.371,381.602 347.011,352.025 332.481,322.447C311.725,283.011 311.725,243.575 332.481,223.856C353.237,204.138 394.749,204.138 415.505,243.575Z" style="fill:black;"/>
                </g>
            </g>
            <path d="M411.362,105.878C575.877,105.878 709.243,239.245 709.243,403.76C709.243,568.276 575.877,701.642 411.362,701.642C246.846,701.642 113.48,568.276 113.48,403.76C113.48,239.245 246.846,105.878 411.362,105.878Z" style="fill:none;stroke-width:41.67px;stroke:rgb(107,0,111);"/>
        </g>
        <g>
            <path d="M363.213,84.0716C394.533,78.1451 426.031,78.1451 457.707,84.0716L457.707,133.752L363.213,133.752" style="fill:white;"/>
        </g>
        <g>
            <path d="M686.622,577.545C707.172,552.779 719.252,523.117 724.635,490.491L673.709,467.782L634.954,553.963" style="fill:white;"/>
        </g>
        <g>
            <path d="M138.668,575.794C117.89,551.131 105.84,521.455 100.683,488.728L153.091,465.352L191.846,551.533" style="fill:white;"/>
        </g>
    </g>
</svg>
