<?xml version="1.0" encoding="UTF-8" standalone="no"?>
<svg width="1000px" height="1000px" viewBox="0 0 1000 1000" version="1.1" xmlns="http://www.w3.org/2000/svg" xmlns:xlink="http://www.w3.org/1999/xlink" xmlns:sketch="http://www.bohemiancoding.com/sketch/ns">
    <!-- Generator: Sketch 3.4.1 (15681) - http://www.bohemiancoding.com/sketch -->
    <title>Solid Brackets</title>
    <desc>Created with Sketch.</desc>
    <defs></defs>
    <g id="Typography/Branding" stroke="none" stroke-width="1" fill="none" fill-rule="evenodd" sketch:type="MSPage">
        <g id="Solid-Brackets" sketch:type="MSArtboardGroup" fill="#BCC5DB">
            <g id="[SJ]" sketch:type="MSLayerGroup" transform="translate(125.000000, 194.000000)">
                <path d="M583.806818,522.106478 L601.239669,522.106478 C612.861628,522.106478 621.771663,518.714952 627.970041,511.931797 C634.168419,505.148643 637.267562,493.423652 637.267562,476.756472 L637.267562,134.887197 C637.267562,118.220018 634.168419,106.495026 627.970041,99.711872 C621.771663,92.9287175 612.861628,89.5371911 601.239669,89.5371911 L583.806818,89.5371911 L583.806818,0 L636.105372,0 C675.620032,0 704.480797,9.78697605 722.688533,29.3612218 C740.896269,48.9354675 750,78.2963956 750,117.444887 L750,482.570576 C750,568.619735 712.035504,611.643669 636.105372,611.643669 L583.806818,611.643669 L583.806818,522.106478 Z M545.938791,461.183558 C534.74055,467.845585 516.581511,471.176548 491.461131,471.176548 C466.340751,471.176548 446.97111,466.785733 433.351627,458.00397 L433.351627,388.05304 C445.457834,388.05304 454.764341,387.523114 461.271428,386.463246 C467.778514,385.403378 472.620925,382.829452 475.798804,378.74139 C478.976683,374.653328 480.86825,370.41392 481.47356,366.023039 C482.078871,361.632158 482.381521,354.288897 482.381521,343.993038 L482.381521,136.865607 L570.453738,136.865607 L570.453738,394.412215 C570.453738,428.327988 562.282171,450.584879 545.938791,461.183558 L545.938791,461.183558 Z M170.496917,251.784993 L170.496917,224.077157 C170.496917,195.612134 178.744147,173.960872 195.238854,159.122721 C211.733562,144.284571 233.448745,135.957163 260.385056,134.140246 C272.188608,133.231788 283.689333,132.777566 294.887574,132.777566 C336.351334,132.777566 371.761459,138.228233 401.119011,149.129731 L401.119011,217.717982 C373.57739,214.689788 337.259313,213.175713 292.163691,213.175713 C278.846863,213.175713 269.918669,214.235565 265.378842,216.355301 C260.839014,218.475037 258.569134,224.077112 258.569134,233.161693 L258.569134,238.158188 C258.569134,246.031493 260.233713,251.633568 263.56292,254.964581 C266.892127,258.295594 274.307067,259.961076 285.807964,259.961076 L328.482131,259.961076 C364.498098,259.961076 389.466776,275.556041 403.388914,306.746439 C410.047328,321.887408 413.376485,338.390818 413.376485,356.257162 L413.376485,371.246647 C413.376485,439.078192 382.657445,472.993455 321.218443,472.993455 C277.030787,472.993455 248.127651,472.312122 234.508168,470.949435 C220.888684,469.586747 203.032297,465.120228 180.938468,457.549743 L180.938468,388.961493 C214.230538,392.292507 253.423796,393.957988 298.519418,393.957988 C308.204384,393.957988 315.089686,392.519618 319.175531,389.642834 C323.261376,386.766049 325.304268,381.996715 325.304268,375.334689 L325.304268,368.06706 C325.304268,361.102213 323.639689,356.030065 320.310482,352.850461 C316.981275,349.670857 310.625612,348.081079 301.243301,348.081079 L260.385056,348.081079 C244.041676,348.081079 229.892759,345.355746 217.937879,339.904997 C205.983,334.454247 197.130468,328.095136 191.38002,320.82747 C185.629572,313.559805 180.938487,304.929581 177.306624,294.936541 C172.766797,281.006849 170.496917,266.623144 170.496917,251.784993 L170.496917,251.784993 Z M0,482.570576 L0,117.444887 C0,78.2963956 9.10373128,48.9354675 27.3114669,29.3612218 C45.5192026,9.78697605 74.3799677,0 113.894628,0 L166.193182,0 L166.193182,89.5371911 L148.760331,89.5371911 C137.138372,89.5371911 128.228337,92.9287175 122.029959,99.711872 C115.831581,106.495026 112.732438,118.220018 112.732438,134.887197 L112.732438,476.756472 C112.732438,493.423652 115.831581,505.148643 122.029959,511.931797 C128.228337,518.714952 137.138372,522.106478 148.760331,522.106478 L166.193182,522.106478 L166.193182,611.643669 L113.894628,611.643669 C37.9644964,611.643669 0,568.619735 0,482.570576 L0,482.570576 Z" id="SJ" sketch:type="MSShapeGroup"></path>
            </g>
        </g>
    </g>
</svg>